<?xml version="1.0" standalone="no"?>
<!DOCTYPE svg PUBLIC "-//W3C//DTD SVG 1.1//EN" "http://www.w3.org/Graphics/SVG/1.1/DTD/svg11.dtd" >
<!--
2013-9-30: Created.
-->
<svg>
<metadata>
Created by iconfont
</metadata>
<defs>

<font id="iconfont" horiz-adv-x="1024" >
  <font-face
    font-family="iconfont"
    font-weight="500"
    font-stretch="normal"
    units-per-em="1024"
    ascent="896"
    descent="-128"
  />
    <missing-glyph />
    
    <glyph glyph-name="dui" unicode="&#58967;" d="M512 738.022125c-217.47508 0-394.423141-176.949085-394.423141-394.423141 0-217.474057 176.948061-394.422118 394.423141-394.422118 217.473033 0 394.422118 176.948061 394.422118 394.422118C906.422118 561.07304 729.473033 738.022125 512 738.022125zM756.807588 476.924525 459.299731 179.416667c-8.521071-8.521071-22.336728-8.521071-30.857798 0L267.191388 340.667212c-8.521071 8.521071-8.521071 22.336728 0 30.857798 8.521071 8.521071 22.336728 8.521071 30.857798 0l145.822157-145.822157 282.07947 282.07947c8.521071 8.521071 22.336728 8.521071 30.857798 0C765.329682 499.261253 765.329682 485.445596 756.807588 476.924525z"  horiz-adv-x="1024" />

    
    <glyph glyph-name="wodedingdan" unicode="&#58906;" d="M690.478416 599.104215c0-13.502525-14.051017-24.428366-31.394011-24.428366L199.737602 574.67585c-17.344017 0-31.41857 10.92584-31.41857 24.428366l0 0c0 13.502525 14.074553 24.428366 31.41857 24.428366L659.084405 623.532581C676.426375 623.532581 690.478416 612.606741 690.478416 599.104215L690.478416 599.104215zM608.033705 409.785405c0-13.502525-11.831466-24.428366-26.431999-24.428366L194.77559 385.35704c-14.600533 0-26.456558 10.924817-26.456558 24.428366l0 0c0 13.502525 11.856026 24.427342 26.456558 24.427342l386.826116 0C596.201216 434.212748 608.033705 423.287931 608.033705 409.785405L608.033705 409.785405zM516.427334 220.608835c0-13.502525-9.353019-24.429389-20.921495-24.429389L189.264063 196.179446c-11.545964 0-20.945031 10.926864-20.945031 24.429389l0 0c0 13.500479 9.399067 24.429389 20.945031 24.429389l306.241776 0C507.074316 245.038224 516.427334 234.109314 516.427334 220.608835L516.427334 220.608835zM492.142232-16.710198c-9.494235-14.693654-25.839505-21.040199-36.455283-14.216793l0 0c-10.616802 6.869455-11.522428 24.379247-2.003634 39.120996L925.14811 737.420421c9.518794 14.6957 25.812899 21.040199 36.428677 14.170744l0 0c10.639315-6.870478 11.544941-24.356734 2.026146-39.052434L492.142232-16.710198zM868.084463 446.665361l0-527.260565c0-38.693254-30.010501-70.184479-66.892503-70.184479L169.559279-150.779683c-36.880979 0-66.89148 31.490202-66.89148 70.184479L102.667799 680.548132c0 38.742373 30.010501 70.231551 66.89148 70.231551l624.73969 0L794.298969 799.636415 169.559279 799.636415c-63.837934 0-115.748211-53.41249-115.748211-119.088282l0-761.143337c0-65.651232 51.9113-119.04121 115.748211-119.04121l631.632681 0c63.815421 0 115.749234 53.389978 115.749234 119.04121L916.941194 446.665361 868.084463 446.665361z"  horiz-adv-x="1024" />

    
    <glyph glyph-name="fenleisousuo" unicode="&#59058;" d="M86.803483 556.125355 320.953338 556.125355c6.963599 22.214954 15.225773 43.449581 24.448832 63.74993L86.803483 619.875285c-12.602016 0-22.829961-14.280238-22.829961-31.875988C63.974545 570.405593 74.201467 556.125355 86.803483 556.125355L86.803483 556.125355zM89.113085 232.217221l292.821115 0c-11.596106 20.200064-22.167882 41.430598-31.232328 63.940265L89.113085 296.157485c-13.44522 0-24.357757-14.292518-24.357757-31.971156C64.756351 246.507692 75.667865 232.217221 89.113085 232.217221L89.113085 232.217221zM864.956216-19.580572l-776.617773 0c-13.396101 0-24.26873-14.280238-24.26873-31.953759 0-17.674545 10.872628-31.955806 24.26873-31.955806l776.617773 0c13.419637 0 24.26873 14.280238 24.26873 31.955806C889.224945-33.86081 878.375853-19.580572 864.956216-19.580572L864.956216-19.580572zM954.333826 70.009885l-134.892223 137.825019c57.589626 49.586348 91.324962 119.535467 92.205005 201.487967 1.623987 151.293775-119.717615 275.266297-271.004227 276.889261-151.287635 1.623987-275.268344-119.719662-276.891308-271.007297-1.623987-151.282518 119.722732-275.262204 271.010367-276.886191 52.756551-0.566912 91.296309 4.558829 133.376707 29.933753l139.659807-142.688793c8.854669-9.05012 31.270191-2.25332 40.271192 6.604418 8.998955 8.804527 15.075347 28.844955 6.269797 37.842887L954.333826 70.009885zM635.458311 203.261749c-115.438149 1.237177-208.006428 95.837742-206.768227 211.250308 1.239224 115.430986 95.818299 208.001311 211.254402 206.762087 115.391077-1.238201 207.999264-95.818299 206.761064-211.249285C845.466326 294.612293 750.848365 202.021501 635.458311 203.261749L635.458311 203.261749zM634.73381 208.930865"  horiz-adv-x="1024" />

    
    <glyph glyph-name="z-set" unicode="&#59029;" d="M511.999 504.238c32.117 0 62.311-12.507 85.021-35.217s35.217-52.905 35.217-85.021c0-32.116-12.507-62.311-35.217-85.020-22.709-22.71-52.904-35.217-85.021-35.217-32.116 0-62.311 12.507-85.021 35.217-22.71 22.709-35.217 52.904-35.217 85.020 0 32.116 12.507 62.311 35.217 85.021s52.905 35.217 85.021 35.217M511.999 541.078c-86.751 0-157.078-70.327-157.078-157.078s70.327-157.076 157.078-157.076 157.078 70.326 157.078 157.076-70.327 157.078-157.078 157.078v0zM512.824 815.835c28.364 0 51.441-23.076 51.441-51.44v-63.992l27.854-7.006c29.516-7.423 57.794-19.046 84.047-34.548l24.588-14.518 44.437 44.438c9.715 9.715 22.632 15.066 36.372 15.066s26.657-5.351 36.372-15.066c9.716-9.716 15.067-22.633 15.067-36.373 0-13.74-5.351-26.657-15.067-36.372l-44.2-44.2 14.747-24.65c15.837-26.473 27.71-55.004 35.291-84.803l7.060-27.756 61.56-0.002c28.364 0 51.44-23.075 51.44-51.439 0-28.364-23.077-51.441-51.441-51.441h-61.587l-7.071-27.738c-7.63-29.928-19.588-58.569-35.54-85.128l-14.818-24.669 43.393-43.392c9.715-9.715 15.066-22.632 15.066-36.372s-5.351-26.657-15.066-36.372c-9.715-9.716-22.632-15.067-36.373-15.067-13.74 0-26.658 5.351-36.373 15.067l-43.773 43.773-24.569-14.447c-26.576-15.627-55.189-27.279-85.042-34.636l-28.025-6.904-0.001-28.863-0.001-33.383c0-13.74-5.351-26.657-15.066-36.372-9.714-9.715-22.631-15.066-36.371-15.066-28.364 0-51.441 23.077-51.441 51.441v63.147l-27.469 7.226c-29.41 7.735-57.551 19.657-83.639 35.434l-24.702 14.937-45.118-45.118c-9.716-9.716-22.633-15.067-36.372-15.067-13.739 0-26.656 5.351-36.372 15.066-9.715 9.715-15.066 22.632-15.066 36.373 0 13.74 5.351 26.658 15.066 36.373l45.755 45.754-14.328 24.536c-15.204 26.035-26.609 54.033-33.899 83.211l-6.973 27.91-65.017-0c-28.362 0-51.438 23.076-51.438 51.439 0 28.364 23.076 51.44 51.441 51.44h65.538l7.159 27.585c7.52 28.977 19.112 56.754 34.454 82.56l14.637 24.621-46.162 46.162c-9.716 9.715-15.066 22.632-15.067 36.372 0 13.74 5.351 26.657 15.066 36.372 9.716 9.716 22.633 15.066 36.372 15.066 13.741 0 26.658-5.351 36.374-15.067l46.17-46.171 24.619 14.627c25.94 15.413 53.859 27.035 82.982 34.545l27.641 7.127v64.331c-0 28.363 23.075 51.439 51.439 51.439M512.824 852.674c-48.754 0-88.278-39.523-88.278-88.279v-35.786c-32.953-8.498-64.060-21.589-92.6-38.546l-25.921 25.921c-17.238 17.238-39.831 25.857-62.424 25.857-22.593 0-45.184-8.618-62.422-25.856-34.474-34.474-34.474-90.369 0.001-124.843l25.908-25.908c-16.886-28.403-29.939-59.351-38.446-92.131h-37.039c-48.756 0-88.28-39.524-88.28-88.279 0-48.752 39.525-88.278 88.277-88.278 0.003 0-0.001 0 0.002 0h36.246c8.249-33.017 21.096-64.209 37.829-92.86l-25.663-25.662c-34.475-34.475-34.474-90.371 0-124.845 17.236-17.236 39.831-25.856 62.422-25.856 22.596 0 45.183 8.616 62.422 25.857l24.707 24.707c28.714-17.364 60.074-30.791 93.333-39.539v-34.744c0-48.756 39.524-88.28 88.28-88.28 48.754 0 88.278 39.523 88.277 88.279l0.001 33.381c33.787 8.325 65.676 21.464 94.901 38.649l23.62-23.62c17.236-17.236 39.833-25.857 62.423-25.857 22.596 0 45.183 8.617 62.423 25.857 34.474 34.474 34.474 90.369-0.001 124.843l-23.043 23.043c17.545 29.207 31.025 61.132 39.658 94.997h32.961c48.756 0 88.28 39.524 88.28 88.28 0 48.754-39.523 88.278-88.279 88.278l-32.919 0.001c-8.578 33.721-21.963 65.521-39.379 94.634l23.888 23.888c34.475 34.474 34.474 90.37 0 124.844-17.238 17.238-39.829 25.856-62.422 25.856s-45.184-8.618-62.422-25.856l-24.246-24.246c-28.896 17.062-60.411 30.157-93.792 38.552v35.271c-0.003 48.752-39.527 88.276-88.282 88.276v0z"  horiz-adv-x="1024" />

    
    <glyph glyph-name="xia" unicode="&#59047;" d="M837.625535 602.58004 505.094465 263.175758 172.559515 602.58004l25.830141 26.380929 306.704808-313.134545 306.703515 313.134545L837.625535 602.58004zM837.625535 602.58004"  horiz-adv-x="1024" />

    
    <glyph glyph-name="tag28fuben" unicode="&#58983;" d="M943.582459 227.023806c-7.086395 0-12.824073-5.737678-12.824073-12.825097l0-144.271848c0-40.405245-27.40107-73.28305-61.10366-73.28305L696.130647-3.356189c-7.086395 0-12.825097-5.737678-12.825097-12.825097 0-7.086395 5.737678-12.825097 12.825097-12.825097l173.524079 0c47.916313 0 86.751806 44.292785 86.751806 98.93222L956.406532 214.198709C956.407556 221.286128 950.668855 227.023806 943.582459 227.023806zM696.130647 779.203924l173.524079 0c33.70259 0 61.10366-32.876782 61.10366-73.28305l0-144.271848c0-7.086395 5.736655-12.825097 12.824073-12.825097s12.825097 5.737678 12.825097 12.825097L956.407556 705.920874c0 54.639434-38.835494 98.93222-86.751806 98.93222L696.130647 804.853094c-7.086395 0-12.825097-5.737678-12.825097-12.825097S689.044252 779.203924 696.130647 779.203924zM76.867692 548.824953c7.086395 0 12.825097 5.737678 12.825097 12.825097L89.692788 705.920874c0 40.406269 27.40107 73.28305 61.10366 73.28305l173.523055 0c7.086395 0 12.825097 5.737678 12.825097 12.825097s-5.737678 12.825097-12.825097 12.825097L150.796448 804.854117c-47.916313 0-86.751806-44.292785-86.751806-98.93222l0-144.271848C64.044642 554.562631 69.781296 548.824953 76.867692 548.824953zM324.319503-3.355165 150.796448-3.355165c-33.70259 0-61.10366 32.876782-61.10366 73.28305L89.692788 214.198709c0 7.087419-5.737678 12.825097-12.825097 12.825097-7.086395 0-12.824073-5.737678-12.824073-12.825097l0-144.271848c0-54.639434 38.835494-98.93222 86.751806-98.93222l173.523055 0c7.086395 0 12.825097 5.738701 12.825097 12.825097C337.1446-9.092843 331.406922-3.355165 324.319503-3.355165zM956.410626 411.077705 76.43381 411.077705c-3.542686 0-6.42227-2.859118-6.42227-6.402827 0-3.542686 2.87856-6.42227 6.42227-6.42227l879.976816 0c3.542686 0 6.42227 2.879584 6.42227 6.42227C962.831872 408.218588 959.953312 411.077705 956.410626 411.077705z"  horiz-adv-x="1024" />

    
    <glyph glyph-name="daitihuo" unicode="&#58883;" d="M995.465 368.375l-185.25 185.315c-4.032 4.034-9.25 6.136-14.531 6.354-1.455 0.295-2.96 0.451-4.503 0.451l-186.97 0v76.638c0 16.852-13.66 30.511-30.511 30.511l-233.415-0c-17.112 70.051-80.281 122.045-155.603 122.045-83.915 0-152.749-64.53-159.611-146.672-0.372-1.904-0.572-3.87-0.572-5.884v-518.69c0-16.852 13.66-30.511 30.511-30.511h94.941c13.875-61.143 68.55-106.789 133.892-106.789 65.341 0 120.017 45.647 133.892 106.789l155.964 0c1.379 0 2.734 0.1 4.065 0.277 1.161-0.181 2.351-0.277 3.563-0.277h72.058c13.875-61.143 68.55-106.789 133.892-106.789 65.341 0 120.017 45.647 133.892 106.789h56.803c12.638 0 22.883 10.245 22.883 22.883l0 190.695h0.156v45.417c2.103 7.375 0.26 15.639-5.547 21.447zM184.682 743.922c63.19 0 114.417-51.227 114.417-114.417s-51.227-114.417-114.417-114.417c-63.192 0-114.417 51.227-114.417 114.417s51.226 114.417 114.417 114.417zM283.844 26.909c-50.552 0-91.534 40.981-91.534 91.534s40.981 91.534 91.534 91.534 91.534-40.981 91.534-91.534-40.981-91.534-91.534-91.534zM558.445 133.698h-138.148c-7.59 68.648-65.782 122.045-136.453 122.045-70.672 0-128.862-53.396-136.453-122.045h-77.126v383.717c29.074-29.674 69.591-48.094 114.417-48.094 85.909 0 156.016 67.631 159.999 152.556h213.764v-488.178zM954.29 347.793l-167.012-0.517c-16.852 0-30.511 13.661-30.511 30.511l0 30.512c0 16.852 13.66 30.511 30.511 30.511l75.791 0.234 91.221-91.251zM787.279 26.909c-50.552 0-91.534 40.981-91.534 91.534s40.981 91.534 91.534 91.534c50.552 0 91.534-40.981 91.534-91.534s-40.981-91.534-91.534-91.534zM955.091 133.698h-31.359c-7.59 68.648-65.782 122.045-136.453 122.045-70.672 0-128.862-53.396-136.453-122.045h-46.615l-0 381.751h182.481l30.861-30.871h-45.531c-33.703 0-61.023-27.32-61.023-61.023v-61.023c0-33.702 27.32-61.023 61.023-61.023h183.067l-0-167.811zM184.682 576.11h61.023c12.638 0 22.883 10.245 22.883 22.883s-10.245 22.883-22.883 22.883h-38.139l-0 68.651c0 12.639-10.245 22.883-22.883 22.883-12.639 0-22.883-10.244-22.883-22.883v-91.534c-0.001-12.637 10.243-22.883 22.882-22.883z"  horiz-adv-x="1024" />

    
    <glyph glyph-name="liulanjilu" unicode="&#58894;" d="M512.03314 342.737c-60.915 0-110.479 49.564-110.479 110.493 0 60.901 49.564 110.464 110.479 110.464 7.436 0 13.486-6.042 13.486-13.472 0-7.443-6.051-13.5-13.486-13.5-46.051 0-83.507-37.449-83.507-83.493 0-46.058 37.456-83.521 83.507-83.521 46.03 0 83.479 37.464 83.479 83.521 0 7.429 6.049 13.472 13.484 13.472 7.437 0 13.487-6.043 13.487-13.472 0.001-60.927-49.548-110.492-110.45-110.492zM512.02014 95.532c-278.468 0-499.84 275.452-509.133 287.18-3.929 4.961-3.839 12.111 0.222 16.99 9.272 11.145 230.637 272.766 508.912 272.766 278.663 0 499.702-268.524 508.981-279.958 3.999-4.919 3.999-12.071 0-17.007-9.28-11.42-230.319-279.971-508.982-279.971zM277.38314 583.043C159.60814 522.198 70.82114 433.632 38.11114 398.372l-6.985-7.513 6.791-7.704C91.80514 322.003 285.25014 122.504 512.02014 122.504c226.646 0 420.098 194.33 473.992 253.887l6.888 7.624-6.888 7.608c-32.586 36.022-121.025 126.541-238.268 189.064l-32.059 17.103 16.618-32.321c18.15-35.289 27.353-73.042 27.353-112.239 0-136.578-111.08-247.679-247.608-247.679-136.563 0-247.665 111.101-247.665 247.679 0 40.208 9.515 78.725 28.268 114.456l16.735 31.906-32.003-16.549z m234.637 62.454c-44.982 0-91.788-7.596-139.106-22.593l-2.19-0.692-1.746-1.497c-49.334-42.08-77.623-103.132-77.623-167.484 0-121.689 99.003-220.707 220.693-220.707 121.663 0 220.637 99.018 220.637 220.707 0 63.59-27.649 124.172-75.862 166.209l-1.726 1.497-2.176 0.721C605.00014 637.485 557.59214 645.497 512.02014 645.497z"  horiz-adv-x="1024" />

    
    <glyph glyph-name="paihangbang" unicode="&#58892;" d="M891.870968 268.387097c-75.974194-89.38529-209.19329-228.418065-330.322581-231.225807v-99.096774h198.193548c13.245935 0 33.032258-20.017548 33.032259-33.032258 0-12.981677-16.747355-33.032258-30.026323-33.032258H294.284387C281.005419-128 264.258065-107.949419 264.258065-94.967742c0 13.01471 19.75329 33.032258 33.032258 33.032258h198.193548v99.096774c-106.694194 1.783742-260.921806 148.149677-330.322581 231.225807-98.667355 0.759742-164.13729 65.23871-165.16129 198.193548V664.774194c0 25.996387 6.507355 33.032258 33.032258 33.032258h99.096774V862.967742c7.234065 21.867355 7.531355 28.903226 33.032258 33.032258h726.709678c22.395871-4.129032 30.951226-16.317935 33.032258-33.032258v-165.16129h99.096774c26.524903 0 33.032258-11.197935 33.032258-37.194323v-200.109419c0-118.519742-44.725677-192.21471-165.16129-192.115613zM132.129032 466.580645V631.741935H66.064516c0.132129-11.363097 0-20.017548 0-33.032258v-132.129032c-2.081032-69.33471 14.369032-123.441548 66.064516-132.129032-0.165161 45.320258 0 82.382452 0 132.129032zM858.83871 796.903226c0 13.01471-19.75329 33.032258-33.032258 33.032258H231.225806c-13.278968 0-33.032258-20.017548-33.032258-33.032258v-371.712c9.282065-178.737548 183.031742-325.731097 330.322581-321.96542 182.404129 4.657548 319.983484 155.614968 330.322581 321.96542V796.903226z m132.129032-330.322581V631.741935c0 6.969806-0.330323 3.237161-0.462452 0H924.903226v-165.16129c0-49.713548 0.825806-89.946839 0-132.129032 33.098323 1.486452 72.241548 33.891097 66.064516 132.129032z m-0.462452 165.16129H990.967742c-0.561548-5.285161-0.594581-2.807742-0.462452 0z m-319.091613-330.32258L528.516129 366.856258 385.618581 301.419355l19.588129 152.906322-107.883355 112.474839 154.987355 29.101419L528.516129 730.83871l76.205419-134.936775 154.987355-29.101419-107.883355-112.474839 19.588129-152.906322z m-110.228645 234.991484L528.516129 598.709677l-32.668903-62.298838-66.427871-13.411097 46.245161-51.893677L467.274323 400.516129 528.516129 430.740645l61.241806-30.224516-8.390193 70.589936 46.245161 51.893677-66.427871 13.411097z"  horiz-adv-x="1057" />

    
    <glyph glyph-name="changjianwenti" unicode="&#58882;" d="M592.224-82.432L167.136-82.432c-41.408 0-75.072 33.632-75.072 75.072L92.064 775.456c0 41.376 33.664 75.008 75.072 75.008l611.36 0c41.376 0 75.072-33.632 75.072-75.008l0-296.736c0-12.576 10.144-22.752 22.752-22.752 12.576 0 22.752 10.176 22.752 22.752L899.072 775.456C899.072 841.92 844.96 896 778.496 896L167.136 896C100.64 896 46.528 841.92 46.528 775.456L46.528-7.36c0-66.496 54.08-120.64 120.608-120.64l425.088 0c12.608 0 22.752 10.176 22.752 22.816C614.976-92.64 604.8-82.432 592.224-82.432zM729.472 690.784L216.096 690.784c-12.576 0-22.752-10.176-22.752-22.752S203.52 645.28 216.096 645.28l513.376 0c12.576 0 22.752 10.176 22.752 22.752S742.016 690.784 729.472 690.784zM752.224 478.688c0 12.576-10.176 22.752-22.752 22.752L216.096 501.44c-12.576 0-22.752-10.176-22.752-22.752 0-12.576 10.176-22.752 22.752-22.752l513.376 0C742.016 455.936 752.224 466.112 752.224 478.688zM216.096 312.128c-12.576 0-22.752-10.176-22.752-22.752s10.176-22.752 22.752-22.752l345.952 0c12.576 0 22.752 10.176 22.752 22.752s-10.176 22.752-22.752 22.752L216.096 312.128zM635.552 122.816L216.096 122.816c-12.576 0-22.752-10.176-22.752-22.816 0-12.576 10.176-22.752 22.752-22.752l419.456 0c12.576 0 22.752 10.176 22.752 22.752C658.304 112.64 648.128 122.816 635.552 122.816zM786.784-65.696l58.496 0 0-62.304-58.496 0 0 62.304ZM934.56 365.504c-28.608 25.536-65.472 38.304-110.528 38.304-21.28 0-41.92-3.392-61.92-10.24-20.032-6.816-38.144-17.44-54.336-31.872-16.224-14.464-27.776-30.464-34.592-47.904-6.784-17.504-10.752-41.632-11.712-72.576l49.376 0c6.08 80.064 43.104 120.064 110.944 120.064 31.392 0 56.352-8.64 74.848-25.824 18.432-17.248 27.68-40.064 27.68-68.384 0-18.752-3.68-34.368-11.072-46.816-7.296-12.32-25.568-33.504-54.624-63.36-29.152-29.888-48.064-55.072-56.64-75.616-8.64-20.448-13.44-45.696-14.432-75.616l52.416 0c0 32.928 3.52 56.512 10.656 70.688 7.104 14.176 26.304 36.256 57.76 66.112 28.832 26.88 47.584 48.128 56.192 63.808 8.64 15.744 12.896 34.496 12.896 56.256C977.472 305.568 963.2 339.872 934.56 365.504z"  horiz-adv-x="1024" />

    
    <glyph glyph-name="wodeshoucang" unicode="&#58913;" d="M697.815661 788.244026c-67.883951 0-132.216013-25.774985-180.70221-71.606731-48.485174 45.831746-112.816213 71.606731-180.699141 71.606731-145.626414 0-264.099452-119.652908-264.099452-266.725251 0-63.147076 22.044018-124.550442 62.0767-172.87291l391.613383-367.133901 37.821321 41.181852 333.37305 323.182988 2.643195 2.769061c40.033705 48.323492 62.0767 109.725834 62.0767 172.87291 0 147.072343-118.478155 266.725251-264.103546 266.725251z m160.559492-402.13295L519.932654 63.806084 175.953056 386.00056c-30.555862 37.525587-48.042083 86.808938-48.042083 135.518215 0 116.114322 93.527953 210.573482 208.502314 210.573482 61.941624 0 120.050973-27.064348 159.446137-74.250949l21.254027-25.460831 21.260167 25.460831c39.39107 47.185578 97.504513 74.250949 159.442043 74.250949 114.974361 0 208.502314-94.45916 208.502315-210.573482-0.001023-48.654019-17.457569-97.896438-47.942823-135.407699zM833.668497 514.298341c0 55.659559-29.312547 104.531543-73.163177 131.709478l0.093121 0.170891a158.03193 158.03193 0 0 1-3.522213 1.896183c-23.84401 12.463845-50.009897 18.273142-76.308814 17.164904a152.703586 152.703586 0 0 1-36.444977-6.023168c-39.28567-11.474309-71.756134-37.660663-91.435296-73.744414l48.706208-27.086861c12.49659 22.92406 33.177567 39.579358 58.178934 46.884726 23.909502 6.971771 48.978407 4.56496 70.961026-6.684222 28.332222-17.198673 47.333957-48.543502 47.333957-84.287517 0-18.151369-5.245457-36.785738-14.59948-52.543598l38.584706-42.506008c20.379102 27.236263 31.616005 60.989951 31.616005 95.049606zM693.279354 396.238718l37.816205-41.182876 58.267962 53.205676-37.341392 41.136827-58.742775-53.159627z"  horiz-adv-x="1024" />

    
    <glyph glyph-name="shouye" unicode="&#59017;" d="M1015.537152 322.048L533.847552 803.7888a30.4896 30.4896 0 0 1-43.1616 0L8.996352 322.048a30.4128 30.4128 0 0 1 0-43.136c11.904-11.904 27.392-11.904 39.296 0l92.2112 96.0512v-381.568c0-16.8192 21.2992-38.144 38.0928-38.144h671.1296c16.8448 0 22.8608 21.3248 22.8608 38.144V371.1232l96-92.2112c5.9904-5.9136 15.6928-8.96 23.5008-8.96s16.5376 3.0208 22.5536 8.96c11.904 11.9296 12.8 31.2832 0.896 43.136zM598.077952 16.2816h-183.04v205.9008c0 25.216 27.8016 38.1184 53.0432 38.1184h91.4944c25.2416 0 38.5024-12.9024 38.5024-38.1184v-205.9008z m213.504 0h-152.4992v205.9008c0 58.88-40.6016 99.1488-99.5072 99.1488h-91.4944c-58.8544 0-114.048-40.2688-114.048-99.1488v-205.9008H201.482752V435.7376c0 0.0768 3.7888 0.1536 3.7888 0.2048L506.532352 739.0976l305.0496-306.944v-415.872z"  horiz-adv-x="1024" />

    
    <glyph glyph-name="youbiao" unicode="&#59020;" d="M573.235078 439.397265l3.302393-2.073596-0.537599-0.537599a74.675051 74.675051 0 0 0-105.599789-105.599788l-0.537599-0.563199-2.099196 3.353593a75.391849 75.391849 0 0 0-13.644772 21.683157l-165.554869 262.988274 262.911474-165.580469c8.038384-3.276793 15.411169-7.910384 21.759957-13.670373z m300.927398 306.687387A508.670983 508.670983 0 0 1 512.128 895.997952h-0.1024v-66.713467h0.1024c118.937362 0 230.757938-46.284707 314.85377-130.380539 173.593253-173.644453 173.593253-456.139888 0-629.73314-84.095832-84.121432-195.993208-130.482939-314.95617-130.482939s-230.809138 46.335907-314.85377 130.380539A442.623115 442.623115 0 0 0 66.81689 383.998976c0 118.962962 46.361507 230.834738 130.457339 314.87937 1.100798 1.151998 2.406395 2.124796 3.558393 3.276794L144.231136 739.889464A508.338183 508.338183 0 0 1 0.129024 383.998976 508.619783 508.619783 0 0 1 150.016724 21.8877C246.682131-74.726507 375.219474-128 512.0256-128s265.394669 53.299093 362.136876 149.9901c199.602801 199.602801 199.602801 524.414951 0 724.094552zM573.414277 895.997952h-61.388677v-252.364295h61.388677V895.997952z"  horiz-adv-x="1024" />

    
    <glyph glyph-name="liebiao" unicode="&#59086;" d="M42.63-46.254v156.457h938.74v-156.457h-938.74zM42.63 462.228h938.74v-156.457h-938.74v156.457zM42.63 814.254h938.74v-156.457h-938.74v156.457z"  horiz-adv-x="1024" />

    
    <glyph glyph-name="youhuiquan1" unicode="&#59057;" d="M958.58176 655.9744c0 23.38304-19.0208 42.40384-42.40384 42.40384H329.51808a19.3024 19.3024 0 0 1-3.0976 0.26624c-1.05472 0-2.08384-0.10752-3.09248-0.26624H107.8272c-23.38304 0-42.40384-19.0208-42.40384-42.40384v-151.72608c0-1.41312 0.15872-2.7904 0.44032-4.1216a19.80416 19.80416 0 0 1-0.18944-2.60096 19.6352 19.6352 0 0 1 19.6352-19.6352c52.46976 0 95.16032-42.68544 95.16032-95.16032s-42.69056-95.1552-95.16032-95.1552a19.6352 19.6352 0 0 1-19.6352-19.64032c0-0.89088 0.08192-1.76128 0.19456-2.62144a19.70688 19.70688 0 0 1-0.44544-4.14208v-149.41184c0-23.38304 19.0208-42.40896 42.40384-42.40896h808.3456c23.38304 0 42.40384 19.02592 42.40384 42.40896v157.37856a19.6352 19.6352 0 0 1-19.6352 19.64032c-0.384 0-0.75776-0.04096-1.13664-0.06144-51.94752 0.6144-94.02368 43.05408-94.02368 95.14496 0 54.25152 40.9088 95.16032 95.16032 95.16032a19.6352 19.6352 0 0 1 19.6352 19.6352c0 0.17408-0.02048 0.34304-0.0256 0.51712 0.00512 0.17408 0.0256 0.34304 0.0256 0.51712V655.9744z m-115.96288-177.18272c-24.57088-25.03168-38.10304-58.74176-38.10304-94.92992 0-67.456 49.9456-123.45344 114.79552-132.992v-139.11552a3.13856 3.13856 0 0 0-3.13344-3.13856H346.05568v55.7824a19.6352 19.6352 0 0 1-39.2704 0v-55.7824H107.8272a3.13856 3.13856 0 0 0-3.13344 3.13856V249.7024c64.96768 9.43104 115.04128 65.4848 115.04128 133.02784s-50.0736 123.60192-115.04128 133.02272V655.9744c0 1.73056 1.40288 3.13344 3.13344 3.13344h198.95808v-52.96128a19.6352 19.6352 0 0 1 39.2704 0V659.10784H916.1728c1.73056 0 3.13344-1.40288 3.13344-3.13344v-139.02336c-29.43488-4.06016-56.15616-17.24928-76.68736-38.15936zM326.42048 539.25376a19.6352 19.6352 0 0 1-19.6352-19.6352v-89.94304a19.6352 19.6352 0 0 1 39.2704 0V519.61856a19.6352 19.6352 0 0 1-19.6352 19.6352zM326.42048 360.50432a19.6352 19.6352 0 0 1-19.6352-19.6352v-89.94304a19.6352 19.6352 0 0 1 39.2704 0v89.94304a19.6352 19.6352 0 0 1-19.6352 19.6352zM710.09792 375.8848a19.6352 19.6352 0 1 1 0 39.2704h-92.50816v4.67968l91.5968 91.59168a19.64032 19.64032 0 0 1-27.76576 27.76576l-81.75616-81.75104-81.75104 81.75104a19.6352 19.6352 0 1 1-27.77088-27.76576l88.17664-88.17664v-8.09472H487.71584a19.6352 19.6352 0 0 1 0-39.2704h90.60352v-31.31904H487.71584a19.6352 19.6352 0 0 1 0-39.2704h90.60352v-49.81248a19.6352 19.6352 0 0 1 39.2704 0v49.81248h92.50816a19.6352 19.6352 0 1 1 0 39.2704h-92.50816v31.31904h92.50816z"  horiz-adv-x="1024" />

    
    <glyph glyph-name="pinpai" unicode="&#59011;" d="M465.338263 101.624863c-10.02818 0-19.647047 3.990806-26.707704 11.051464L198.363546 353.045668c-14.632957 14.632957-14.632957 38.680124 0 53.415409l336.455681 336.455681c9.311882 9.311882 24.558809 15.349256 38.987109 15.349256 3.581493 0 7.162986-0.306985 10.437493-1.125612L764.444089 715.697412c17.088838-3.990806 32.847407-19.749375 36.735885-36.735885l41.44299-180.20026c3.78615-16.577196-2.148896-37.349855-14.121315-49.219946L492.045968 112.573998c-7.162986-7.060658-16.679524-10.949136-26.707705-10.949135zM225.07125 379.651044l240.267013-240.267013 336.455681 336.455681c2.762866 2.762866 4.911762 10.437494 4.093135 14.121315L764.444089 670.263615c-0.716299 3.069851-5.321075 7.776956-8.390926 8.390927L575.648246 720.097532c-0.306985 0.102328-0.920955 0.204657-1.84191 0.204656-4.707105 0-10.335165-2.148896-12.279405-4.297791L225.07125 379.651044zM667.743779 631.276506c13.609673 13.609673 35.712601 13.609673 49.219946 0 13.609673-13.609673 13.609673-35.712601 0-49.219946-13.609673-13.609673-35.712601-13.609673-49.219946 0-13.712002 13.609673-13.712002 35.712601 0 49.219946zM465.338263 9.836315c-7.265314 0-14.4283 2.762866-20.05636 8.288598L191.609873 271.796942l13.405017 13.405017 253.672029-253.67203c3.683821-3.683821 9.618867-3.683821 13.405017 0L821.747976 381.288298l13.405017-13.405016L485.394624 18.124913c-5.62806-5.525732-12.791046-8.288598-20.056361-8.288598z"  horiz-adv-x="1024" />

    
    <glyph glyph-name="daizhifu" unicode="&#58980;" d="M249.756098 124.253659c-27.473171 0-49.95122 22.478049-49.95122 52.44878V396.487805c0 7.492683-4.995122 12.487805-12.487805 12.487805s-12.487805-4.995122-12.487805-12.487805v-222.282927c0-42.458537 32.468293-77.42439 74.92683-77.42439 7.492683 0 12.487805 4.995122 12.487804 12.487805 0 9.990244-4.995122 14.985366-12.487804 14.985366zM314.692683 124.253659h-12.487805c-7.492683 0-12.487805-4.995122-12.487805-12.487805s4.995122-12.487805 12.487805-12.487805h12.487805c7.492683 0 12.487805 4.995122 12.487805 12.487805s-4.995122 12.487805-12.487805 12.487805zM866.653659 436.44878h-52.448781v119.882927c0 39.960976-29.970732 74.926829-69.931707 84.917073v14.985366l-57.443903 149.853659c-2.497561 7.492683-7.492683 12.487805-12.487805 14.985366-7.492683 2.497561-12.487805 2.497561-19.980487 0L202.302439 653.736585c-4.995122-2.497561-9.990244-4.995122-12.487805-7.492683h-19.980488c-49.95122 0-84.917073-39.960976-84.917073-89.912195V96.780488c0-49.95122 34.965854-92.409756 84.917073-92.409756h549.463415c49.95122 0 94.907317 39.960976 94.907317 92.409756v104.897561h52.448781c49.95122 0 89.912195 39.960976 89.912195 89.912195V346.536585c2.497561 49.95122-39.960976 89.912195-89.912195 89.912195zM646.868293 763.629268l44.956097-119.882927H329.678049l317.190244 119.882927zM761.756098 96.780488c0-22.478049-22.478049-39.960976-42.458537-39.960976h-549.463415C149.853659 59.317073 137.365854 76.8 137.365854 96.780488V556.331707c0 19.980488 12.487805 37.463415 32.468292 37.463415h549.463415c22.478049 0 42.458537-17.482927 42.458537-37.463415v-119.882927h-79.921952c-49.95122 0-89.912195-39.960976-89.912195-89.912195v-54.946341c0-49.95122 39.960976-89.912195 89.912195-89.912195H761.756098V96.780488z m144.858536 194.809756c0-19.980488-17.482927-37.463415-37.463414-37.463415h-184.819513c-19.980488 0-37.463415 17.482927-37.463414 37.463415V346.536585c0 19.980488 17.482927 37.463415 37.463414 37.463415h184.819513c19.980488 0 37.463415-17.482927 37.463414-37.463415v-54.946341zM711.804878 344.039024c-14.985366 0-24.97561-9.990244-24.97561-24.975609s9.990244-24.97561 24.97561-24.97561 24.97561 9.990244 24.97561 24.97561-12.487805 24.97561-24.97561 24.975609z"  horiz-adv-x="1024" />

    
    <glyph glyph-name="fanhuidingbu" unicode="&#58895;" d="M1007.308853 203.61056L549.700647 683.385625c-5.380544 5.630231-11.842723 10.031471-18.952654 12.876261-1.272993 0.457418-2.545986 0.935302-3.840468 1.359974a51.728128 51.728128 0 0 1-11.375072 2.137687 50.537 50.537 0 0 1-7.762801 0.005117c-12.517081-0.902556-24.77936-6.348592-34.342156-16.380063h-0.011256L15.819291 203.61056c-21.052478-22.107507-21.052478-57.875129 0-79.950913 21.057595-22.048155 55.204299-22.048155 76.262917 0l419.473677 439.753559 419.484933-439.753559c21.041222-22.048155 55.187927-22.048155 76.268035 0 21.041222 22.074761 21.041222 57.842383 0 79.950913z"  horiz-adv-x="1024" />

    
    <glyph glyph-name="asmkticon0246" unicode="&#58880;" d="M868.8618721348225 740.8618721348225C671.9145181736234 938.6508814548304 352.0854818263766 938.6508814548304 155.1381278651774 740.8618721348225-42.65088145483037 543.9145181736234-42.65088145483037 224.08548182637662 155.1381278651774 27.138127865177466s516.776390308446-196.9473539611993 714.5653996284539 0C1066.6508814548304 224.08548182637662 1066.6508814548304 543.9145181736234 868.8618721348225 740.8618721348225zM738.4052915194983 193.78588890926915c10.099864305702527-10.099864305702527 10.099864305702527-26.091316123064857 0-35.34952506995884-5.049932152851263-5.049932152851263-11.783175023319615-7.5748982292768945-17.67476253497942-7.5748982292768945s-12.624830382128154 2.5249660764256316-17.67476253497942 7.5748982292768945L512 348.6504749300411l-190.2141110907309-190.2141110907309c-5.049932152851263-5.049932152851263-11.783175023319615-7.5748982292768945-17.67476253497942-7.5748982292768945s-12.624830382128154 2.5249660764256316-17.67476253497942 7.5748982292768945c-10.099864305702527 10.099864305702527-10.099864305702527 26.091316123064857 0 35.34952506995884L476.6504749300412 384 285.5947084805016 574.2141110907309c-10.099864305702527 10.099864305702527-10.099864305702527 26.091316123064857 0 35.34952506995884 10.099864305702527 10.099864305702527 26.091316123064857 10.099864305702527 35.34952506995884 0L512 419.3495250699588l190.2141110907309 190.2141110907309c10.099864305702527 10.099864305702527 26.091316123064857 10.099864305702527 35.34952506995884 0 10.099864305702527-10.099864305702527 10.099864305702527-26.091316123064857 0-35.34952506995884L547.3495250699589 384 738.4052915194983 193.78588890926915z"  horiz-adv-x="1024" />

    
    <glyph glyph-name="bangzhu" unicode="&#59097;" d="M513.4-60.6C268.3-60.6 68.8 138.8 68.8 384S268.3 828.7 513.4 828.7C758.6 828.7 958 629.2 958 384.1S758.6-60.6 513.4-60.6z m0 828.3c-211.5 0-383.7-172.1-383.7-383.7s172.1-383.7 383.7-383.7S897.1 172.5 897.1 384 725 767.7 513.4 767.7zM482.9 516.9h61v-442.1h-61zM482.9 680.7h61v-72.4h-61z"  horiz-adv-x="1024" />

    
    <glyph glyph-name="shaixuan" unicode="&#59118;" d="M341.333333-71.111111h56.888889V497.777778L187.733333 725.333333h648.533334L625.777778 497.777778v-341.333334h56.888889V475.022222L967.111111 782.222222H56.888889l284.444444-307.2z"  horiz-adv-x="1024" />

    
    <glyph glyph-name="cuo" unicode="&#59004;" d="M511.488-17.6a416.832 416.832 0 0 0-410.88 421.76 416.832 416.832 0 0 0 410.88 422.08 416.832 416.832 0 0 0 410.56-422.08 416.832 416.832 0 0 0-410.56-421.76M511.488 896A485.248 485.248 0 0 1 32.896 404.16a485.248 485.248 0 0 1 478.592-493.184 485.248 485.248 0 0 1 480 493.184A485.248 485.248 0 0 1 511.424 896M699.52 606.464l-176.448-158.72-158.72 165.632-71.04-73.344 167.616-147.776L296.32 244.48l71.36-73.344L524.8 335.36l178.496-157.376 39.296 40.32-164.928 172.224 168.576 176.192-46.592 39.68z"  horiz-adv-x="1024" />

    
    <glyph glyph-name="icon1" unicode="&#58881;" d="M624.86499999 383.75300000000004l-292.15499999 292.159c-12.28 12.27-12.28 32.186 0 44.457 12.27 12.28 32.186 12.28 44.457 0l314.388-314.388c12.28-12.27 12.28-32.186 0-44.457l-314.388-314.387c-6.136-6.14-14.183-9.211-22.228-9.211s-16.092 3.071-22.228 9.211c-12.28 12.27-12.28 32.186 0 44.457l292.155 292.16z"  horiz-adv-x="1024" />

    
    <glyph glyph-name="weibo1" unicode="&#58948;" d="M768.78019 37.64419c-72.655238-54.613333-159.207619-84.260571-259.803428-88.990476v-0.048762c-102.546286-4.778667-189.635048 15.213714-261.266286 59.830858-71.68 44.617143-107.422476 101.180952-107.422476 169.545142 0 67.437714 35.59619 125.561905 106.788571 174.470096 71.192381 48.90819 158.47619 75.727238 261.900191 80.457142 103.472762 4.827429 190.756571-12.288 261.948952-51.2 71.192381-39.009524 106.788571-92.16 106.788572-159.548952 0-68.412952-36.327619-129.901714-108.934096-184.515048m260.437334 309.930667a201.776762 201.776762 0 0 1-46.957714 31.353905 161.304381 161.304381 0 0 1-39.15581 12.824381v-0.146286c-14.238476 2.82819-23.454476 7.119238-27.696762 12.824381-4.291048 5.656381-4.973714 10.922667-2.145524 15.652572l4.242286 7.119238a16.969143 16.969143 0 0 1 2.925714 4.291047 385.219048 385.219048 0 0 1 5.656381 12.141715c2.82819 6.144 4.973714 12.336762 6.436572 18.529523 1.462857 6.144 2.633143 13.750857 3.559619 22.723048 0.926476 9.069714 0.633905 17.554286-0.731429 25.697524a109.080381 109.080381 0 0 1-8.582095 26.331428 87.576381 87.576381 0 0 1-17.798095 25.648762c-13.312 13.360762-30.622476 21.894095-51.980191 25.697524a193.584762 193.584762 0 0 1-64.073143 0.731429c-21.357714-3.31581-41.496381-7.606857-60.464762-12.824381-19.017143-5.217524-34.620952-10.24-47.006476-14.969905l-18.480762-8.582095a182.954667 182.954667 0 0 0-23.503238-5.656381 27.111619 27.111619 0 0 0-14.238476 0.731428 38.716952 38.716952 0 0 0-7.850667 4.242286c-1.901714 1.462857-2.584381 4.778667-2.145523 10.044952 0.487619 5.168762 0.975238 9.703619 1.414095 13.507048 0.487619 3.803429 1.657905 9.752381 3.559619 17.846857 1.901714 8.045714 3.31581 14.482286 4.291047 19.212191 0 11.410286-0.731429 22.089143-2.145523 32.036571a156.42819 156.42819 0 0 1-9.264762 33.450667 72.265143 72.265143 0 0 1-20.626286 29.939809 106.544762 106.544762 0 0 1-34.133333 18.529524c-13.799619 4.681143-31.597714 6.095238-53.443048 4.242286-21.845333-1.950476-46.518857-7.606857-74.020571-17.066667a457.532952 457.532952 0 0 1-101.083429-50.566095c-34.133333-22.332952-63.829333-45.592381-88.990476-69.778286a1616.457143 1616.457143 0 0 1-69.046857-70.558476c-20.870095-22.77181-37.059048-41.301333-48.420572-55.588571l-15.652571-22.77181c-31.305143-40.813714-54.564571-81.67619-69.729524-122.489905-15.213714-40.862476-22.332952-71.68-21.406476-92.647619v-29.842286c5.705143-45.592381 19.69981-86.454857 42.032762-122.538666 22.28419-36.08381 48.859429-65.340952 79.725714-87.625143 30.817524-22.28419 67.145143-41.301333 108.885333-56.953905 41.788952-15.701333 81.871238-27.062857 120.344381-34.182095 38.424381-7.119238 78.994286-12.092952 121.709715-14.969905 70.217143-5.705143 143.067429-0.24381 218.550857 16.384 75.385905 16.579048 145.65181 45.348571 210.651428 86.162286 65.048381 40.862476 110.83581 89.721905 137.411048 146.773333 16.091429 33.206857 24.429714 64.560762 24.917333 94.012953 0.487619 29.45219-4.486095 53.443048-14.921143 71.923809a183.003429 183.003429 0 0 1-40.618666 49.152m-10.630095 136.728381a33.158095 33.158095 0 0 1 24.185904-9.99619v-0.048762c5.753905 0 10.971429 1.462857 15.701334 4.291047a35.742476 35.742476 0 0 1 17.066666 24.185905c0.975238 0.975238 1.462857 2.389333 1.462857 4.291048 11.361524 108.251429-26.624 170.032762-113.907809 185.197714a200.899048 200.899048 0 0 1-71.192381 1.414095 29.062095 29.062095 0 0 1-17.066667-4.973714 44.860952 44.860952 0 0 1-12.190476-12.824381 29.744762 29.744762 0 0 1-4.924952-16.335238c0-9.508571 3.31581-17.554286 9.99619-24.234667a33.109333 33.109333 0 0 1 24.137143-9.947428c74.069333 17.066667 113.90781-6.631619 119.612952-71.241143 1.901714-16.14019 0.975238-31.353905-2.925714-45.592381 0-9.508571 3.413333-17.554286 10.044953-24.185905m239.908571 170.812952a286.427429 286.427429 0 0 1-27.745524 71.92381 240.64 240.64 0 0 1-42.715428 57.002667 347.184762 347.184762 0 0 1-54.125715 42.76419 360.935619 360.935619 0 0 1-57.685333 30.622476 390.144 390.144 0 0 1-57.636571 18.529524c-41.74019 9.45981-97.718857 7.558095-167.984762-5.705143-0.975238 0-1.901714-0.487619-2.876953-1.462857l-1.414095-2.82819-1.365333-1.462857a46.470095 46.470095 0 0 1-25.697524-17.798096 48.274286 48.274286 0 0 1-9.947429-29.257143 48.274286 48.274286 0 0 1 14.238477-35.59619 46.811429 46.811429 0 0 1 34.133333-14.238476h4.339809c0.926476 0 3.072 0.487619 6.38781 1.462857 3.413333 0.877714 6.92419 1.609143 10.678857 2.096762 3.754667 0.487619 7.801905 1.462857 12.092952 2.925714 4.33981 1.365333 8.143238 2.82819 11.410286 4.242286 3.267048 1.414095 9.703619 2.145524 19.212191 2.145524 9.557333 0 21.162667-0.731429 34.913523-2.145524 13.750857-1.462857 28.91581-4.973714 45.543619-10.678857a365.714286 365.714286 0 0 0 49.834667-21.357715c16.579048-8.582095 33.206857-20.48 49.834667-35.59619 16.62781-15.164952 31.110095-32.768 43.398095-52.662857 24.722286-56.07619 29.500952-110.201905 14.287238-162.474667 0-0.975238-0.24381-1.901714-0.731428-2.82819a44.714667 44.714667 0 0 1-2.145524-7.119238c-0.926476-3.803429-1.901714-7.314286-2.876953-10.72762-0.975238-3.31581-1.950476-7.558095-2.876952-12.775619-0.926476-5.168762-1.414095-9.703619-1.414095-13.507047 0-8.582095 2.438095-15.701333 7.119238-21.406476 4.729905-5.705143 10.727619-9.752381 17.846857-12.092953 7.119238-2.438095 15.408762-3.559619 24.868571-3.559619 26.624 0 42.276571 16.091429 47.006477 48.420572a422.278095 422.278095 0 0 1 19.21219 106.105904c1.462857 33.743238-0.975238 63.390476-7.119238 89.039238m-711.826286-466.553904c-2.389333-4.242286-5.461333-8.289524-9.264762-12.092953a31.597714 31.597714 0 0 0-20.626285-6.387809c-7.119238 0.487619-12.092952 3.559619-14.921143 9.264762l-2.925714 5.705143a12.629333 12.629333 0 0 0-1.365334 5.705142v5.656381c0 2.876952 0.487619 5.217524 1.414095 7.119238l2.876953 5.705143a9.167238 9.167238 0 0 0 4.242286 4.291048l4.291047 5.705143c7.606857 5.705143 14.969905 8.045714 22.040381 7.070476 7.119238-0.975238 12.092952-4.729905 14.969905-11.361524a17.749333 17.749333 0 0 0 3.559619-12.824381 35.108571 35.108571 0 0 0-4.291048-13.555809m-71.143619-78.945524c-6.144-9.45981-14.433524-17.554286-24.868571-24.185905a73.045333 73.045333 0 0 0-34.182095-11.410286l-0.048762-0.097523a65.194667 65.194667 0 0 0-30.622477 2.194285 154.770286 154.770286 0 0 0-12.775619 4.924953 29.208381 29.208381 0 0 0-10.678857 7.801904 147.504762 147.504762 0 0 0-7.801904 10.044953 44.129524 44.129524 0 0 0-7.850667 24.917333c0 10.435048 2.82819 20.675048 8.533333 30.622476 5.705143 9.947429 13.55581 18.529524 23.503238 25.648762 9.99619 7.168 21.113905 11.215238 33.450667 12.190476 8.533333 0.926476 16.822857 0.682667 24.917333-0.78019 8.094476-1.462857 14.969905-3.803429 20.626286-7.070476 5.705143-3.31581 10.678857-7.119238 14.969905-11.410286 4.291048-4.291048 7.314286-9.264762 9.264762-14.969905 1.852952-5.656381 2.82819-11.849143 2.82819-18.529523 0-10.435048-3.072-20.382476-9.264762-29.891048m162.913524 178.078476c-15.11619 19.943619-37.692952 35.401143-67.584 46.32381-29.891048 10.873905-64.316952 13.945905-103.228952 9.264762v-0.097524c-27.452952-2.82819-52.175238-9.264762-73.97181-19.212191-21.845333-9.99619-38.912-21.357714-51.248762-34.182095a218.160762 218.160762 0 0 1-31.353905-41.301333 157.403429 157.403429 0 0 1-17.846857-43.446857c-3.267048-14.238476-5.36381-27.306667-6.339047-39.15581-1.024-11.849143-1.462857-21.113905-1.462857-27.794286l1.462857-11.361524v-5.705142c0-2.82819 0.926476-8.582095 2.82819-17.066667 1.950476-8.533333 4.534857-16.432762 7.801905-23.552 3.31581-7.119238 8.777143-14.969905 16.384-23.503238 7.606857-8.533333 16.579048-15.701333 27.062857-21.357714 62.659048-30.427429 121.027048-39.69219 175.104-27.794286 54.125714 11.897905 97.718857 39.204571 130.974476 81.92 13.312 16.091429 22.089143 36.08381 26.331429 59.830857a167.936 167.936 0 0 1-2.876953 71.92381 183.05219 183.05219 0 0 1-32.036571 66.267428"  horiz-adv-x="1267" />

    
    <glyph glyph-name="i-dollar" unicode="&#58893;" d="M944.616835 348.542667l-0.271996 0.032a433.112827 433.112827 0 0 0-220.780343-343.002319c-205.564595-114.7341-464.984299-43.343282-583.990328 158.301378l67.742878-19.247681-177.613058 132.285809 21.167649-220.092355 19.855672 68.686862c140.205678-239.596032 447.704585-324.650623 691.252551-188.732874l0.047999 0.016c147.485557 82.318637 244.155956 231.372168 259.963694 399.561382l0.047999 0.016c0.207997 1.903968-77.422718 12.175798-77.422717 12.175798zM991.640056 496.028225l-19.29568 220.412349-20.175666-71.006824C811.131046 882.74182 505.296111 966.580431 262.788128 831.238673A512.071519 512.071519 0 0 1 1.960448 427.149365l78.526699-6.703889A433.224825 433.224825 0 0 0 301.171492 762.439812c202.972638 113.262124 458.472407 44.975255 579.462403-150.9575l-65.166921 18.047701 176.173082-133.501788zM483.744468 195.265206c-12.303796 0-24.655592 0.511992-37.071386 1.567974s-24.1276 2.479959-35.119418 4.319928a317.114748 317.114748 0 0 0-29.63151 6.287896c-8.751855 2.351961-15.759739 4.84792-20.991652 7.455877v54.159103a343.514311 343.514311 0 0 1 29.823506-9.423844c11.519809-3.135948 25.37558-5.791904 41.599311-8.015867 16.223731-2.239963 32.431463-3.359944 48.655194-3.359945h2.751955V360.47847a505.99162 505.99162 0 0 0-45.32725 9.823837 135.629754 135.629754 0 0 0-39.631343 17.263714c-11.647807 7.583874-20.991652 17.391712-28.047536 29.423513s-10.591825 27.327547-10.591824 45.903239c0 15.439744 3.071949 29.423513 9.215847 41.983305a99.486352 99.486352 0 0 0 25.503578 32.559461c10.84782 9.151848 23.871605 16.607725 39.039353 22.35163 15.167749 5.759905 31.775474 9.567842 49.823175 11.391811v40.799324h51.807142v-39.631343c21.439645-1.039983 41.263317-3.135948 59.439015-6.287896s34.719425-7.183881 49.647178-12.159799v-54.543097c-16.479727 4.975918-33.487445 9.295846-51.007155 12.959786s-36.879389 6.0159-58.063038 7.055883v-111.022161c15.67974-2.879952 31.183484-6.335895 46.47923-10.399828a153.197463 153.197463 0 0 0 41.199317-17.247714 89.454518 89.454518 0 0 0 29.423513-29.055519c7.455877-11.887803 11.183815-27.135551 11.183815-45.711243 0-14.911753-3.00795-28.415529-9.023851-40.575328a93.56645 93.56645 0 0 0-25.887571-31.775474c-11.247814-9.023851-24.719591-16.479727-40.399331-22.367629-15.69574-5.871903-33.359447-10.159832-52.975122-12.767789v-42.367298h-51.807142v39.183351zM421.761495 465.228735c0-13.87177 5.023917-24.527594 15.103749-31.983471s25.695574-13.135782 46.895224-17.055717v101.630317c-41.343315-5.247913-61.998973-22.783623-61.998973-52.591129z m180.50901-159.709355c0 7.599874-1.583974 13.951769-4.719922 19.039684a40.511329 40.511329 0 0 1-13.535776 13.119783c-5.887902 3.663939-12.895786 6.751888-21.007652 9.231847s-17.247714 4.639923-27.455545 6.463893v-101.630317a186.188916 186.188916 0 0 1 25.887571 6.287896 76.254737 76.254737 0 0 1 21.183649 10.399828c6.0159 4.335928 10.799821 9.471843 14.335763 15.487744s5.311912 13.215781 5.311912 21.599642z"  horiz-adv-x="1024" />

    
    <glyph glyph-name="liwuhejiangpinlibaoxianxing" unicode="&#59826;" d="M758.414222 654.222222H910.222222a56.888889 56.888889 0 0 0 56.888889-56.888889v-113.777777a56.888889 56.888889 0 0 0-56.888889-56.888889h-28.444444v-369.777778a85.333333 85.333333 0 0 0-85.333334-85.333333H227.555556a85.333333 85.333333 0 0 0-85.333334 85.333333v369.777778H113.777778a56.888889 56.888889 0 0 0-56.888889 56.888889v113.777777a56.888889 56.888889 0 0 0 56.888889 56.888889h151.808a99.555556 99.555556 0 0 0 89.969778 142.222222H398.222222c46.535111 0 87.836444-22.328889 113.777778-56.888888a141.994667 141.994667 0 0 0 113.777778 56.888888h42.666666a99.555556 99.555556 0 0 0 89.969778-142.222222zM540.444444 597.333333v-113.777777h369.777778v113.777777H540.444444z m-56.888888 0H113.777778v-113.777777h369.777778v113.777777z m-284.444445-170.666666v-369.777778a28.444444 28.444444 0 0 1 28.444445-28.444445h256v398.222223H199.111111z m341.333333 0v-398.222223h256a28.444444 28.444444 0 0 1 28.444445 28.444445v369.777778H540.444444z m-142.222222 312.888889h-42.666666a42.666667 42.666667 0 0 1 0-85.333334H483.555556a85.333333 85.333333 0 0 1-85.333334 85.333334z m227.555556 0a85.333333 85.333333 0 0 1-85.333334-85.333334h128a42.666667 42.666667 0 0 1 0 85.333334H625.777778z"  horiz-adv-x="1024" />

    
    <glyph glyph-name="lianxiwomen" unicode="&#58907;" d="M948.5 168.8c-0.7 25.8-13.8 49.7-35.3 64.1L762.8 334.3C744.1 347 721 351.2 699 345.9a79.53 79.53 0 0 1-51.3-39.6l-24.2-44.5c-8.2-15.8-27.6-21.9-43.4-13.8-85 55.3-158.3 126.6-216 209.9-8.2 15.6-2.4 34.9 13 43.4l43.7 25.3c19.5 11.1 33.4 30 38.3 51.9 4.9 21.9 0.3 44.9-12.6 63.2l-104.3 148c-15 21.2-39.3 33.8-65.2 33.8-25.7 0.1-49.8-12.2-64.8-33L168 729.1c-51.7-71.8-62.7-165.2-29.2-247.1 99.5-201.1 264.5-362.4 467.7-457.4 28.9-13.5 60.5-20.5 92.5-20.3 56.8 0 112.1 18.6 157.3 53l60.2 45.7c20.8 15.4 32.7 40 32 65.8zM881.3 147l-60.2-45.7C767 57.9 693.6 47 629.2 73c-190.6 90.1-345.8 241.2-440.9 429.4-26.5 64.7-17.8 138.5 23 195.3l44.1 63.3c5 6.9 13 10.9 21.5 10.7v-1.5c8.6 0 16.6-4.1 21.5-11.1l104-148.5c4.3-6.1 5.9-13.7 4.3-21.1-1.6-7.3-6.2-13.6-12.7-17.3l-43.7-24.9c-40.3-23.1-54.9-74.1-33-115.1 62.4-91.8 142.6-170.1 236-230.2 41.7-21.5 92.9-5.6 115.1 35.7l24.2 44.5c3.6 6.6 9.8 11.4 17.1 13.2 7.3 1.8 15 0.3 21.2-4L881.3 190c6.9-5 11-13 11-21.5s-4.1-16.5-11-21.5z"  horiz-adv-x="1024" />

    
    <glyph glyph-name="wode" unicode="&#58914;" d="M1006.581219 36.408125c-1.052083 2.83253-110.023552 284.102742-475.217577 284.102742-6.95993 0-13.919861-0.080929-19.949103-0.323718-0.242788 0-2.630206 0.121394-6.95993 0.121394-56.448273 0-344.88074-13.434284-485.131432-279.368371l-1.942306-4.977159c-2.185094-7.526436-19.989568-74.900182 15.781238-122.405754 20.596538-27.273216 52.765984-41.152612 95.618114-41.152612h586.738323l11.451514 11.491978v40.464712l-11.451514 11.491978H128.739758c-21.850944 0-36.944282 5.300877-44.91583 15.821703-12.341737 16.307279-10.278037 47.991148-6.919466 62.720303 125.764325 235.747412 396.716036 242.585948 427.185964 242.585948l6.595748-0.080929c7.243183 0.202324 14.324508 0.323718 21.324903 0.323718 312.549435 0 404.889908-215.798309 413.954003-239.105983 13.434284-55.719908-8.376195-76.073658-18.492373-82.26476H796.407505l-11.451513-11.491978v-40.464712l11.451513-11.491978h141.788351l7.202719 1.861377c32.007587 11.491978 86.068442 59.887774 61.182644 162.142101zM439.953858 345.679918l13.960325 8.254801 10.116178 39.210306-8.254801 13.960326a215.960168 215.960168 0 0 0-162.1421 209.323954c0 119.168577 96.95345 216.122026 216.162491 216.122027s216.162491-96.95345 216.162491-216.122027a215.919703 215.919703 0 0 0-162.142101-209.323954l-8.254801-13.960326 10.116178-39.210306 13.960325-8.254801a279.408836 279.408836 0 0 1 209.728602 270.749387c0 154.170552-125.400142 279.570695-279.53023 279.570695s-279.611159-125.400142-279.611159-279.570695a279.449301 279.449301 0 0 1 209.728602-270.749387z"  horiz-adv-x="1024" />

    
    <glyph glyph-name="laba" unicode="&#58886;" d="M855.194374 383.660927a263.12053 263.12053 0 0 1-191.915232 252.948345 33.907285 33.907285 0 0 1-42.045033-33.907285 33.907285 33.907285 0 0 1 24.074172-33.907285 194.627815 194.627815 0 0 0 0-374.675497 33.907285 33.907285 0 0 1-24.074172-33.907284 33.907285 33.907285 0 0 1 42.045033-33.907285 263.12053 263.12053 0 0 1 191.915232 257.356291zM529.006295 896a46.113907 46.113907 0 0 1-27.803974-12.545695L490.35199 873.960265l-109.859603-89.515232-156.312582-128.508609H83.464573a67.81457 67.81457 0 0 1-67.81457-67.81457V187.337748a67.81457 67.81457 0 0 1 67.81457-67.814569h131.899338l160.381457-131.899338 111.215894-91.210596 14.580132-11.86755a46.113907 46.113907 0 0 1 27.803974-12.545695c11.86755 0 20.005298 8.815894 23.056953 24.413245a65.780132 65.780132 0 0 1 0 12.545695V858.701987a67.81457 67.81457 0 0 1 0 14.919205c-3.729801 14.580132-12.206623 22.378808-23.396026 22.378808zM320.815566 120.87947l-81.03841 67.81457H83.464573V588.121854h164.789404l78.6649 64.423841 158.686093 130.543047v-797.838411zM733.806295 824.455629a33.907285 33.907285 0 0 1-48.82649-30.177483 33.907285 33.907285 0 0 1 19.327152-30.516557 421.128477 421.128477 0 0 0 0-756.13245 33.907285 33.907285 0 0 1-19.327152-30.516556 33.907285 33.907285 0 0 1 48.82649-30.855629 488.943046 488.943046 0 0 1 0 878.537748z"  horiz-adv-x="1024" />

    
    <glyph glyph-name="shuangxiangjiantou" unicode="&#59314;" d="M817.28 256H138.656a32 32 0 0 0 0 64h768c30.08 0 43.52-37.664 20.32-56.736l-209.92-203.68a32 32 0 1 0-40.64 49.44L817.28 256zM214.528 512h692.16a32 32 0 1 0 0-64h-768c-28.32 0-42.688 34.048-22.944 54.336l223.008 201.088a32 32 0 1 0 45.824-44.672L214.528 512z"  horiz-adv-x="1024" />

    
    <glyph glyph-name="qq1" unicode="&#59054;" d="M943.235 255.489s-29.138 108.452-82.557 174.555c0 0 29.138 54.743-19.425 130.142 0 0-11.655 325.356-329.254 325.356S182.746 560.187 182.746 560.187c-48.562-75.4-19.426-130.142-19.426-130.142-53.418-66.103-82.556-174.555-82.556-174.555-27.195-132.208 24.282-155.964 32.051-158.03s25.253 18.592 31.08 27.888c5.828 9.296 18.454 39.25 21.368 41.315s7.77-15.493 7.77-15.493c20.396-67.137 64.102-115.683 64.102-115.683-43.706-16.525-73.815-48.545-73.815-48.545s-55.361-84.695 92.27-101.222 244.754 35.117 244.754 35.117h23.31s97.126-51.644 244.755-35.117 92.27 101.222 92.27 101.222-30.11 32.02-73.815 48.545c0 0 43.705 48.546 64.102 115.683 0 0 4.856 17.56 7.77 15.493s15.54-32.02 21.368-41.315c5.827-9.296 23.31-29.953 31.08-27.888s59.245 25.82 32.05 158.029z"  horiz-adv-x="1024" />

    
    <glyph glyph-name="weixin1" unicode="&#58885;" d="M446.748444 139.377778c-58.254222 0-100.693333 9.443556-155.761777 25.201778l-158.833778-80.213334 45.624889 135.281778C65.991111 298.268444 0 397.368889 0 518.485333 0 732.387556 201.386667 896 446.748444 896c217.031111 0 410.510222-128.967111 448.284445-311.466667a217.884444 217.884444 0 0 1-42.496 4.721778c-213.902222 0-379.050667-160.426667-379.050667-353.848889 0-33.109333 4.721778-62.976 12.515556-94.435555-12.515556-1.592889-26.737778-1.592889-39.253334-1.592889z m655.928889-154.112L1134.08-128l-119.523556 67.640889c-45.624889-9.443556-89.656889-23.608889-135.281777-23.608889-210.773333 0-377.514667 144.725333-377.514667 324.039111 0 179.313778 166.741333 324.039111 377.514667 324.039111 199.793778 0 379.107556-144.725333 379.107555-324.039111 0-100.693333-67.697778-190.293333-155.704889-254.862222v0.056889zM300.373333 707.242667c-32.995556 0-67.640889-20.48-67.640889-55.068445 0-32.995556 34.588444-55.068444 67.640889-55.068444 31.459556 0 56.661333 22.072889 56.661334 55.068444 0 34.645333-25.201778 55.068444-56.661334 55.068445z m703.146667-322.446223c-23.608889 0-44.088889-20.48-44.088889-45.624888 0-20.48 20.48-40.903111 44.088889-40.903112 31.402667 0 55.011556 20.48 55.011556 40.96 0 25.088-23.608889 45.511111-55.011556 45.511112z m-247.011556 0c-22.016 0-44.032-20.48-44.032-45.624888 0-20.48 22.016-40.903111 44.032-40.903112 33.052444 0 56.661333 20.48 56.661334 40.96 0 25.088-23.608889 45.511111-56.661334 45.511112z m-144.668444 212.366223c34.588444 0 56.604444 22.016 56.604444 55.011555 0 34.645333-22.016 55.068444-56.604444 55.068445-32.995556 0-64.512-20.48-64.512-55.068445 0-32.995556 31.459556-55.011556 64.512-55.011555z"  horiz-adv-x="1308" />

    
    <glyph glyph-name="dingwei" unicode="&#58887;" d="M512.09668625 563.88658219a99.58288406 99.58288406 0 1 0-70.78783313-29.39494782A99.58288406 99.58288406 0 0 0 512.09668625 563.88658219m0 59.98968937a160.17247031 160.17247031 0 1 1 113.38051313-46.79195812A158.97267656 158.97267656 0 0 1 512.09668625 623.8762715600001zM786.84946344 747.45503156a382.13432062 382.13432062 0 0 1-549.50555344 0 404.33050594 404.33050594 0 0 1 0-562.10338875L512.09668625-96l274.75277719 281.35164281a404.33050594 404.33050594 0 0 1 0 562.10338875z m-41.39288532-522.51019406l-233.35989187-239.95875656-233.35989094 239.95875656a342.54112594 342.54112594 0 0 0 0 476.91802969 325.14411562 325.14411562 0 0 0 466.71978282 0 342.54112594 342.54112594 0 0 0 0-476.91802969z"  horiz-adv-x="1024" />

    
    <glyph glyph-name="changjianwenti1" unicode="&#58955;" d="M586.472727 55.854545h-325.818182c-27.927273 0-53.527273 23.272727-53.527272 51.2V684.218182c0 27.927273 23.272727 51.2 53.527272 51.2h470.109091c27.927273 0 53.527273-23.272727 53.527273-51.2v-216.436364c0-11.636364 9.309091-23.272727 23.272727-23.272727 11.636364 0 23.272727 9.309091 23.272728 23.272727V684.218182c0 53.527273-44.218182 95.418182-97.745455 95.418182H260.654545C207.127273 779.636364 162.909091 737.745455 162.909091 684.218182v-577.163637c0-53.527273 44.218182-95.418182 97.745454-95.418181h325.818182c11.636364 0 23.272727 9.309091 23.272728 23.272727 0 11.636364-9.309091 20.945455-23.272728 20.945454z m0 0M872.727273 339.781818c-23.272727 20.945455-53.527273 30.254545-88.436364 30.254546-16.290909 0-32.581818-2.327273-48.872727-6.981819-16.290909-4.654545-30.254545-13.963636-44.218182-25.6-13.963636-11.636364-23.272727-23.272727-27.927273-37.236363-4.654545-13.963636-9.309091-32.581818-9.309091-55.854546v-4.654545h48.872728V244.363636c4.654545 58.181818 30.254545 86.109091 79.127272 86.109091 23.272727 0 41.890909-6.981818 53.527273-18.618182 13.963636-11.636364 18.618182-27.927273 18.618182-46.545454 0-13.963636-2.327273-23.272727-6.981818-32.581818-4.654545-9.309091-18.618182-25.6-41.890909-46.545455-23.272727-23.272727-37.236364-41.890909-44.218182-58.181818-6.981818-16.290909-11.636364-34.909091-11.636364-58.181818v-4.654546h51.2v4.654546c0 23.272727 2.327273 41.890909 6.981818 51.2 4.654545 9.309091 20.945455 25.6 44.218182 48.872727 23.272727 20.945455 37.236364 37.236364 44.218182 48.872727 6.981818 11.636364 11.636364 27.927273 11.636364 44.218182 0 30.254545-11.636364 55.854545-34.909091 76.8zM751.709091 13.963636h51.2V-34.909091h-51.2zM686.545455 546.909091h-372.363637c-18.618182 0-34.909091 16.290909-34.909091 34.909091s16.290909 34.909091 34.909091 34.909091h372.363637c18.618182 0 34.909091-16.290909 34.90909-34.909091s-16.290909-34.909091-34.90909-34.909091zM640 384h-325.818182c-18.618182 0-34.909091 16.290909-34.909091 34.909091s16.290909 34.909091 34.909091 34.909091h325.818182c18.618182 0 34.909091-16.290909 34.909091-34.909091s-16.290909-34.909091-34.909091-34.909091zM546.909091 221.090909h-232.727273c-18.618182 0-34.909091 16.290909-34.909091 34.909091s16.290909 34.909091 34.909091 34.909091h232.727273c18.618182 0 34.909091-16.290909 34.909091-34.909091s-16.290909-34.909091-34.909091-34.909091z"  horiz-adv-x="1024" />

    
    <glyph glyph-name="xingtaiduICON_sousuo--" unicode="&#58889;" d="M240.776 655.1279999999999A302.952 302.952 0 0 1 157.328 384c18.048 81.912 60.48 161.952 126.576 228.096C350.048 678.264 430.088 720.672 512 738.72c-95.28 17.952-197.52-9.864-271.224-83.592zM959.6 93.26400000000001l-114.096 114.096a110.64 110.64 0 0 1-87 31.992c107.304 155.208 91.8 369.744-46.392 507.96-155.568 155.616-407.856 155.616-563.472 0-155.568-155.616-155.568-407.928 0-563.544 138.192-138.216 352.56-153.6 507.864-46.296-2.4-31.2 8.304-63.312 31.992-87l114.096-114.12c43.2-43.104 113.784-43.104 156.888 0 43.32 43.104 43.32 113.712 0.12 156.912zM665.84 230.15999999999997c-130.008-130.008-340.68-130.008-470.64 0-130.008 130.008-130.008 340.728 0 470.736 129.96 130.008 340.632 130.008 470.64 0 129.984-129.912 129.984-340.728 0-470.736z"  horiz-adv-x="1024" />

    
    <glyph glyph-name="gouwudai1" unicode="&#58946;" d="M129.365333-64h762.112l-39.424 640H168.746667l-39.381334-640zM148.693333 640h723.456a42.666667 42.666667 0 0 0 42.581334-40.064l42.026666-682.666667A42.666667 42.666667 0 0 0 914.176-128H106.666667a42.666667 42.666667 0 0 0-42.581334 45.269333l42.026667 682.666667A42.666667 42.666667 0 0 0 148.693333 640z m216.704-224c-35.84 0-65.493333 28.330667-65.493333 64s29.610667 64 65.493333 64c35.84 0 65.450667-28.330667 65.450667-64s-29.610667-64-65.450667-64z m258.645334 119.210667V725.333333c0 58.282667-50.474667 106.666667-114.048 106.666667-63.616 0-114.090667-48.384-114.090667-106.666667v-256h-64V725.333333c0 94.293333 79.701333 170.666667 178.090667 170.666667 98.346667 0 178.048-76.373333 178.048-170.666667v-188.885333c20.522667-10.709333 34.645333-31.829333 34.645333-56.448 0-35.669333-29.653333-64-65.493333-64s-65.493333 28.330667-65.493334 64c0 23.68 13.098667 44.16 32.341334 55.210667z"  horiz-adv-x="1024" />

    
    <glyph glyph-name="zanwutu" unicode="&#59098;" d="M960 832H64C28.704 832 0 803.296 0 768v-768c0-35.296 28.704-64 64-64h896c35.296 0 64 28.704 64 64V768c0 35.296-28.704 64-64 64zM64 768h896v-714.096l-235.504 348a32.08 32.08 0 0 1-46.704 6.896l-153.6-124.608L350.016 526.72c-13.904 19.392-43.392 17.2-54.4-4L64 75.296V768z m736-96a64.016 64.016 0 0 1 0-128 64.016 64.016 0 0 1 0 128z"  horiz-adv-x="1024" />

    
    <glyph glyph-name="yemian" unicode="&#58890;" d="M569.8048 874.7264a82.0736 82.0736 0 0 1-110.2848 0L13.568 451.2768a41.1392 41.1392 0 0 1 55.0912-61.1072l7.0912 6.7328V-45.05600000000004a82.2784 82.2784 0 0 1 82.2784-82.3808h239.4368v247.7056a57.9328 57.9328 0 0 0 57.9584 58.0096h112.6656a57.9328 57.9328 0 0 0 57.9584-58.0096v-247.7056h245.12a82.2784 82.2784 0 0 1 82.304 82.3808V391.5008c18.2784-16.5376 44.2112-15.2832 59.4176 1.664a41.1392 41.1392 0 0 1-2.9696 58.112L569.8048 874.7008z"  horiz-adv-x="1024" />

    
    <glyph glyph-name="cuo1" unicode="&#59168;" d="M955 384c0-244.6-198.2-443-443-443-152.9 0-287.8 77.4-367.3 195.3C96.9 207 69 292.2 69 384 69 628.6 267.2 827 512 827s443-198.4 443-443z m0 0M580.9 384l93.5 93.5c19 19 19 49.9 0 68.9-19 19-49.9 19-68.9 0L512 452.9l-93.5 93.5c-19 19-49.9 19-68.9 0-19-19-19-49.9 0-68.9l93.5-93.5-93.5-93.5c-19-19-19-49.9 0-68.9 9.5-9.5 22-14.3 34.5-14.3 12.6 0 25 4.8 34.5 14.3l93.5 93.5 93.5-93.5c9.5-9.5 22-14.3 34.5-14.3 12.4 0 25 4.8 34.5 14.3 19 19 19 49.9 0 68.9L580.9 384z m0 0"  horiz-adv-x="1024" />

    
    <glyph glyph-name="dibu" unicode="&#58891;" d="M792.855 430.194c-6.24 6.208-14.369 9.312-22.56 9.312s-16.447-3.169-22.688-9.44l-207.91-207.74v565.28c0 17.697-14.336 32-32 32s-32.002-14.303-32.002-32v-563.712l-206.24 206.164c-6.271 6.209-14.432 9.344-22.624 9.344-8.224 0-16.417-3.135-22.656-9.407-12.511-12.513-12.48-32.768 0.032-45.248L483.536 125.62c3.265-3.263 7.104-5.6 11.136-7.135 4-1.793 8.352-2.88 13.024-2.88 1.12 0 2.08 0.544 3.2 0.64 8.288-0.064 16.608 3.009 22.976 9.408l259.11 259.292c12.48 12.511 12.448 32.8-0.127 45.248z m99.706-409.725c0-17.665-14.303-32.001-31.999-32.001h-704c-17.665 0-32 14.334-32 31.999s14.335 32 32 32h704c17.696 0 32-14.334 32-31.998z"  horiz-adv-x="1024" />

    
    <glyph glyph-name="touxiang-copy-copy" unicode="&#58897;" d="M512 896C229.674667 896 0 666.325333 0 384s229.674667-512 512-512 512 229.674667 512 512S794.325333 896 512 896zM523.221333 743.829333c193.6 0 193.92-148.117333 193.92-231.424s-77.568-238.08-193.92-238.272c-116.352-0.170667-193.92 154.944-193.92 238.250667C329.301333 595.6906670000001 329.642667 743.829333 523.221333 743.829333zM512-99.77599999999995c-148.16 0-280.682667 66.688-369.429333 171.584 11.648 32.213333 28.693333 67.114667 51.733333 85.034667 49.536 38.549333 192.298667 102.613333 192.298667 102.613333l90.133333-171.413333 16.384 41.557333-25.408 51.242667 50.794667 51.264 50.773333-51.264-25.365333-51.242667 13.738667-40.597333 92.714667 170.453333c0 0 142.784-64.064 192.32-102.613333 22.570667-17.578667 38.421333-44.864 49.578667-71.722667C803.690667-27.392000000000053 666.325333-99.77599999999995 512-99.77599999999995z"  horiz-adv-x="1024" />

    
    <glyph glyph-name="youhuiquan" unicode="&#59010;" d="M0.53868 220.870194c45.358372 9.965578 83.932427 37.998531 107.504754 76.102511 15.741141 25.43738 36.386303 55.290918 36.386303 87.217866-0.036844 31.900268-20.652784 61.791921-36.386303 87.184833C84.47873 509.479385 45.904675 537.511067 0.546303 547.484268V781.442859C0.575524 844.324844 52.077896 895.296159 115.536675 895.296159h1247.618223c63.466402 0 114.961151-50.971315 114.997995-113.8533v-233.52536c-44.992476-9.318908-89.174392-36.429499-113.262531-73.513291-16.953171-26.054829-32.577429-57.002243-32.577429-90.21999 0-33.245697 16.800715-68.761727 33.725935-94.815285 24.080516-37.082521 67.121548-59.632119 112.114025-68.945945V-13.93199c-0.043196-62.845141-51.504913-113.816457-114.962422-113.8533H115.530323c-63.501975 0-114.990372 51.008159-114.990373 113.923176V220.871464z m73.068625 394.505528c81.601112-49.553469 149.977886-129.600794 149.977886-231.183881 0-101.574194-68.414888-181.636764-149.979156-231.219454V-53.575782h925.868784v106.511246h71.367464v-106.511246h334.235633V142.638372c-82.705151 49.319702-149.712357 139.134412-149.712358 241.553469 0 102.383484 67.007206 192.235037 149.712358 241.561092V821.087921H1070.842283v-106.995296h-73.655583V821.08665H73.607305v-205.710928z m349.123018-266.989578c-11.274164 0-17.176774 3.878749-17.176775 12.23464V399.309181c0 4.681687 1.987017 9.13596 6.095722 13.817648 4.096 4.886233 8.972069 6.972347 14.558333 6.972347h70.220228c5.465568 0 11.675633 0.581876 18.129628 1.795176 6.210065 1.389896 7.394144 4.900208 4.324685 10.668149-1.406412 2.086114-6.797022 10.45598-16.580923 24.484526-9.752139 14.250878-20.431722 38.106521-32.693042 53.854015-12.075831 15.938065-22.984099 30.769548-33.725936 44.693916-10.198074 14.031087-16.587275 22.79861-18.767404 26.485518-5.87339 9.13596-2.286849 20.20939 10.37594 33.140249 2.108983 2.411355 6.805916 5.994084 13.854491 10.746918 6.57596 4.602918 12.974055 8.071305 18.659415 10.377211 9.381161 3.361667 15.957122 4.056615 20.051851 1.682104 3.693261-2.299553 8.798015-7.457667 14.485916-15.713191 2.286849-3.397241 7.979831-11.944973 17.360992-25.323037 9.044486-13.695682 18.839821-27.876685 29.215762-43.077876 10.278114-15.342213 19.844764-28.975643 28.448397-41.032417 8.756089-12.464596 13.561012-19.621161 14.55071-22.103663 2.185211-4.497469 6.68268-6.469241 13.080774-5.263563 6.274859 1.163752 10.447087 4.057886 12.662789 8.73195 1.369568 2.304635 6.353628 9.172804 15.668724 20.429181 9.265548 10.851097 19.1333 23.315692 29.323752 37.523375 10.161231 14.250878 20.251315 27.003871 30.032675 39.431623 9.867752 12.348983 16.32937 20.711226 19.951484 25.605082 10.383563 19.80665 21.23339 26.16663 32.613003 19.118054 8.054789-4.605459 15.368893-9.576814 21.759364-14.76923 6.281211-5.440159 12.268943-9.823285 17.955574-13.406015 11.45203-7.965856 13.151921-18.635275 5.170818-31.458144-19.463623-23.315692-36.823345-44.908625-51.789498-64.924903-12.55734-16.335722-30.285499-40.998114-41.967484-56.64143-11.365638-14.90263-12.4773-23.668883-14.700625-26.264456-2.359266-4.497469 0-6.97997 6.913905-6.97997h20.422829c5.695524 0 7.241687-0.185489 18.02799-0.802938 11.078511-0.588228 21.171136-0.410362 30.441767 0.802938 9.087682 0 16.65334-2.079762 22.417469-6.973618 5.615484-4.460625 7.394144-10.34799 5.028526-17.321608-1.112933-4.858283-1.699891-11.839524-1.699891-21.008516v-17.983524c0-5.65995-1.628744-8.942849-5.206392-9.532347-3.479821-0.518352-7.394144-0.693677-12.083454-0.693678h-108.012943c-13.596586 0-20.467295-2.887782-20.467295-8.770064v-22.987911c0-6.057608 1.003672-8.94539 3.399781-8.94539H756.550511c6.797022 1.206948 11.264-0.622531 13.667732-5.084426 2.178859-4.895127 3.878749-10.151067 5.206392-15.92536 1.181538-6.065231 1.181538-8.044625 0-13.121429-1.327643-5.4427-1.621122-9.931275-1.621121-13.223067 0-15.349836-7.46402-22.910412-22.423822-22.910412h-111.555017c-5.996625 0-9.273171-0.767365-10.269221-2.482502-1.112933-1.793906-1.772308-5.667573-1.772308-11.441866-1.226005-5.879742-1.635097-27.763613-0.816913-42.893657 0.478968-15.314263 0.88933-25.173122 0.88933-30.074601 0-12.825409-7.457667-19.187931-22.353945-19.18793H565.245459c-9.166452 0-13.862114 2.887782-13.862114 8.959365v81.40927c0 11.83063-5.278809 17.712913-15.367623 17.712913h-15.54803c-7.974749 0-17.169151 0.190571-26.740883 0.998591-9.975742 0.397658-19.247643 0.801667-28.219712 0.801667h-33.991464c-15.949499 0-24.338422 5.879742-24.338422 17.315256v35.296238c0 10.668149 5.694253 15.924089 17.146283 15.924089h111.699851c11.271623-2.474878 17.360993 0 17.360992 6.979971 0 3.290521 0.185489 3.177449 0.809291 8.484208 0.602203 5.25467 0.666998 9.922382 0.666997 14.831484 0 4.488576-1.772308 2.439305-5.873389 4.637221-4.165876 2.485042-8.453717 3.69072-12.965162 3.690719h-113.290481z m648.075116 252.079325v-177.572526l-72.880595-0.043196V600.465469h72.880595z m-72.843752-433.647484V344.434978h72.880596v-177.616993h-72.880596z"  horiz-adv-x="1478" />

    
    <glyph glyph-name="fanhui1" unicode="&#58884;" d="M766.86222222-125.72444444999996c-10.24 0-20.59377778 3.64088889-28.44444444 10.92266667L228.69333333 357.60355555c-15.70133333 14.56355555-15.70133333 38.22933333 0 52.7928889L738.41777778 882.80177778c15.70133333 14.56355555 41.18755555 14.56355555 56.88888889 0 15.70133333-14.56355555 15.70133333-38.22933333 0-52.79288889L314.02666667 384l481.28-446.00888889c15.70133333-14.56355555 15.70133333-38.22933333 0-52.79288889-7.85066667-7.28177778-18.20444445-10.92266667-28.44444445-10.92266667z"  horiz-adv-x="1024" />

    


  </font>
</defs>
</svg>
